<svg xmlns="http://www.w3.org/2000/svg" viewBox="0 0 140 140">
  <rect x="0" y="0" width="140" height="140" rx="32" fill="#7F77DD"/>
  <path d="M28,78 L56,106 L112,50" fill="none" stroke="white" stroke-width="14" stroke-linecap="round" stroke-linejoin="round"/>
  <path d="M112,16 L115,26 L126,26 L117,33 L120,43 L112,36 L104,43 L107,33 L98,26 L109,26 Z" fill="#EF9F27"/>
  <path d="M128,56 L129.5,61 L135,61 L130.5,64 L132,69 L128,66 L124,69 L125.5,64 L121,61 L126.5,61 Z" fill="#EF9F27" opacity="0.6"/>
  <path d="M18,36 L19.5,41 L25,41 L20.5,44 L22,49 L18,46 L14,49 L15.5,44 L11,41 L16.5,41 Z" fill="white" opacity="0.5"/>
  <circle cx="26" cy="110" r="2.5" fill="white" opacity="0.3"/>
</svg>
